<mxfile host="app.diagrams.net" agent="Mozilla/5.0 (Macintosh; Intel Mac OS X 10_15_7) AppleWebKit/605.1.15 (KHTML, like Gecko) Version/18.3.1 Safari/605.1.15" version="26.2.7">
  <diagram id="C5RBs43oDa-KdzZeNtuy" name="Page-1">
    <mxGraphModel dx="927" dy="859" grid="1" gridSize="10" guides="1" tooltips="1" connect="1" arrows="1" fold="1" page="1" pageScale="1" pageWidth="827" pageHeight="1169" math="0" shadow="0">
      <root>
        <mxCell id="WIyWlLk6GJQsqaUBKTNV-0" />
        <mxCell id="WIyWlLk6GJQsqaUBKTNV-1" parent="WIyWlLk6GJQsqaUBKTNV-0" />
        <mxCell id="v76f6t59qDI6cZXkn5ms-0" value="VectorData" style="swimlane;fontStyle=1;align=center;verticalAlign=middle;childLayout=stackLayout;horizontal=1;startSize=29;horizontalStack=0;resizeParent=1;resizeParentMax=0;resizeLast=0;collapsible=0;marginBottom=0;html=1;whiteSpace=wrap;" vertex="1" parent="WIyWlLk6GJQsqaUBKTNV-1">
          <mxGeometry x="450" y="80" width="180" height="130" as="geometry" />
        </mxCell>
        <mxCell id="v76f6t59qDI6cZXkn5ms-2" value="&lt;div&gt;current_state: bool&lt;/div&gt;vehicle_count&lt;div&gt;average_vehicle_speed&lt;/div&gt;&lt;div&gt;pedestrians: bool&lt;/div&gt;&lt;div&gt;intersections: [Intersection]&lt;/div&gt;" style="text;html=1;strokeColor=none;fillColor=none;align=left;verticalAlign=middle;spacingLeft=4;spacingRight=4;overflow=hidden;rotatable=0;points=[[0,0.5],[1,0.5]];portConstraint=eastwest;whiteSpace=wrap;" vertex="1" parent="v76f6t59qDI6cZXkn5ms-0">
          <mxGeometry y="29" width="180" height="101" as="geometry" />
        </mxCell>
        <mxCell id="v76f6t59qDI6cZXkn5ms-3" value="Intersection" style="swimlane;fontStyle=1;align=center;verticalAlign=middle;childLayout=stackLayout;horizontal=1;startSize=29;horizontalStack=0;resizeParent=1;resizeParentMax=0;resizeLast=0;collapsible=0;marginBottom=0;html=1;whiteSpace=wrap;" vertex="1" parent="WIyWlLk6GJQsqaUBKTNV-1">
          <mxGeometry x="100" y="80" width="190" height="130" as="geometry" />
        </mxCell>
        <mxCell id="v76f6t59qDI6cZXkn5ms-4" value="&lt;div&gt;location: GPS coordinates&lt;/div&gt;connections: [VectorData]" style="text;html=1;strokeColor=none;fillColor=none;align=left;verticalAlign=middle;spacingLeft=4;spacingRight=4;overflow=hidden;rotatable=0;points=[[0,0.5],[1,0.5]];portConstraint=eastwest;whiteSpace=wrap;" vertex="1" parent="v76f6t59qDI6cZXkn5ms-3">
          <mxGeometry y="29" width="190" height="101" as="geometry" />
        </mxCell>
        <mxCell id="v76f6t59qDI6cZXkn5ms-5" style="edgeStyle=orthogonalEdgeStyle;rounded=0;orthogonalLoop=1;jettySize=auto;html=1;entryX=0.007;entryY=0.146;entryDx=0;entryDy=0;entryPerimeter=0;exitX=0.989;exitY=0.138;exitDx=0;exitDy=0;exitPerimeter=0;" edge="1" parent="WIyWlLk6GJQsqaUBKTNV-1" source="v76f6t59qDI6cZXkn5ms-3" target="v76f6t59qDI6cZXkn5ms-0">
          <mxGeometry relative="1" as="geometry" />
        </mxCell>
        <mxCell id="v76f6t59qDI6cZXkn5ms-6" value="1..*" style="edgeLabel;html=1;align=center;verticalAlign=middle;resizable=0;points=[];" vertex="1" connectable="0" parent="v76f6t59qDI6cZXkn5ms-5">
          <mxGeometry x="-0.2798" relative="1" as="geometry">
            <mxPoint y="-9" as="offset" />
          </mxGeometry>
        </mxCell>
        <mxCell id="v76f6t59qDI6cZXkn5ms-18" style="edgeStyle=orthogonalEdgeStyle;rounded=0;orthogonalLoop=1;jettySize=auto;html=1;" edge="1" parent="WIyWlLk6GJQsqaUBKTNV-1" source="v76f6t59qDI6cZXkn5ms-7" target="v76f6t59qDI6cZXkn5ms-8">
          <mxGeometry relative="1" as="geometry" />
        </mxCell>
        <mxCell id="v76f6t59qDI6cZXkn5ms-19" value="2.1 Update Signal wait time for each connected signal" style="edgeLabel;html=1;align=center;verticalAlign=middle;resizable=0;points=[];" vertex="1" connectable="0" parent="v76f6t59qDI6cZXkn5ms-18">
          <mxGeometry x="-0.25" relative="1" as="geometry">
            <mxPoint y="-20" as="offset" />
          </mxGeometry>
        </mxCell>
        <mxCell id="v76f6t59qDI6cZXkn5ms-21" style="edgeStyle=orthogonalEdgeStyle;rounded=0;orthogonalLoop=1;jettySize=auto;html=1;exitX=0.5;exitY=1;exitDx=0;exitDy=0;" edge="1" parent="WIyWlLk6GJQsqaUBKTNV-1" source="v76f6t59qDI6cZXkn5ms-7" target="v76f6t59qDI6cZXkn5ms-20">
          <mxGeometry relative="1" as="geometry">
            <Array as="points">
              <mxPoint x="410" y="680" />
              <mxPoint x="150" y="680" />
            </Array>
          </mxGeometry>
        </mxCell>
        <mxCell id="v76f6t59qDI6cZXkn5ms-23" style="edgeStyle=orthogonalEdgeStyle;rounded=0;orthogonalLoop=1;jettySize=auto;html=1;exitX=0.5;exitY=1;exitDx=0;exitDy=0;entryX=0.5;entryY=0;entryDx=0;entryDy=0;" edge="1" parent="WIyWlLk6GJQsqaUBKTNV-1" source="v76f6t59qDI6cZXkn5ms-7" target="v76f6t59qDI6cZXkn5ms-22">
          <mxGeometry relative="1" as="geometry">
            <Array as="points">
              <mxPoint x="410" y="680" />
              <mxPoint x="630" y="680" />
            </Array>
          </mxGeometry>
        </mxCell>
        <mxCell id="v76f6t59qDI6cZXkn5ms-7" value="Signal Agent" style="rounded=1;whiteSpace=wrap;html=1;fillColor=#dae8fc;strokeColor=#6c8ebf;" vertex="1" parent="WIyWlLk6GJQsqaUBKTNV-1">
          <mxGeometry x="350" y="540" width="120" height="60" as="geometry" />
        </mxCell>
        <mxCell id="v76f6t59qDI6cZXkn5ms-8" value="Signal Agent" style="rounded=1;whiteSpace=wrap;html=1;fillColor=#dae8fc;strokeColor=#6c8ebf;" vertex="1" parent="WIyWlLk6GJQsqaUBKTNV-1">
          <mxGeometry x="350" y="760" width="120" height="60" as="geometry" />
        </mxCell>
        <mxCell id="v76f6t59qDI6cZXkn5ms-10" style="edgeStyle=orthogonalEdgeStyle;rounded=0;orthogonalLoop=1;jettySize=auto;html=1;exitX=1;exitY=0.5;exitDx=0;exitDy=0;entryX=0;entryY=0;entryDx=0;entryDy=0;" edge="1" parent="WIyWlLk6GJQsqaUBKTNV-1" source="v76f6t59qDI6cZXkn5ms-9" target="v76f6t59qDI6cZXkn5ms-7">
          <mxGeometry relative="1" as="geometry" />
        </mxCell>
        <mxCell id="v76f6t59qDI6cZXkn5ms-11" value="2. Update traffic data" style="edgeLabel;html=1;align=center;verticalAlign=middle;resizable=0;points=[];" vertex="1" connectable="0" parent="v76f6t59qDI6cZXkn5ms-10">
          <mxGeometry x="-0.2182" y="1" relative="1" as="geometry">
            <mxPoint x="-1" y="142" as="offset" />
          </mxGeometry>
        </mxCell>
        <mxCell id="v76f6t59qDI6cZXkn5ms-14" style="edgeStyle=orthogonalEdgeStyle;rounded=0;orthogonalLoop=1;jettySize=auto;html=1;entryX=1;entryY=0;entryDx=0;entryDy=0;" edge="1" parent="WIyWlLk6GJQsqaUBKTNV-1" source="v76f6t59qDI6cZXkn5ms-9" target="v76f6t59qDI6cZXkn5ms-7">
          <mxGeometry relative="1" as="geometry" />
        </mxCell>
        <mxCell id="v76f6t59qDI6cZXkn5ms-15" value="1. Initialize with vectors" style="edgeLabel;html=1;align=center;verticalAlign=middle;resizable=0;points=[];" vertex="1" connectable="0" parent="v76f6t59qDI6cZXkn5ms-14">
          <mxGeometry x="0.1976" y="3" relative="1" as="geometry">
            <mxPoint x="7" y="11" as="offset" />
          </mxGeometry>
        </mxCell>
        <mxCell id="v76f6t59qDI6cZXkn5ms-9" value="Scheduler" style="rounded=1;whiteSpace=wrap;html=1;" vertex="1" parent="WIyWlLk6GJQsqaUBKTNV-1">
          <mxGeometry x="90" y="280" width="120" height="70" as="geometry" />
        </mxCell>
        <mxCell id="v76f6t59qDI6cZXkn5ms-16" style="edgeStyle=orthogonalEdgeStyle;rounded=0;orthogonalLoop=1;jettySize=auto;html=1;entryX=0.442;entryY=1.029;entryDx=0;entryDy=0;entryPerimeter=0;" edge="1" parent="WIyWlLk6GJQsqaUBKTNV-1" source="v76f6t59qDI6cZXkn5ms-7" target="v76f6t59qDI6cZXkn5ms-9">
          <mxGeometry relative="1" as="geometry" />
        </mxCell>
        <mxCell id="v76f6t59qDI6cZXkn5ms-17" value="3. Next vector to activate" style="edgeLabel;html=1;align=center;verticalAlign=middle;resizable=0;points=[];" vertex="1" connectable="0" parent="v76f6t59qDI6cZXkn5ms-16">
          <mxGeometry x="0.2402" y="-4" relative="1" as="geometry">
            <mxPoint x="20" y="-6" as="offset" />
          </mxGeometry>
        </mxCell>
        <mxCell id="v76f6t59qDI6cZXkn5ms-20" value="Signal Agent" style="rounded=1;whiteSpace=wrap;html=1;fillColor=#dae8fc;strokeColor=#6c8ebf;" vertex="1" parent="WIyWlLk6GJQsqaUBKTNV-1">
          <mxGeometry x="90" y="770" width="120" height="60" as="geometry" />
        </mxCell>
        <mxCell id="v76f6t59qDI6cZXkn5ms-22" value="Signal Agent" style="rounded=1;whiteSpace=wrap;html=1;fillColor=#dae8fc;strokeColor=#6c8ebf;" vertex="1" parent="WIyWlLk6GJQsqaUBKTNV-1">
          <mxGeometry x="570" y="760" width="120" height="60" as="geometry" />
        </mxCell>
        <mxCell id="v76f6t59qDI6cZXkn5ms-24" value="Vehicle" style="rounded=1;whiteSpace=wrap;html=1;" vertex="1" parent="WIyWlLk6GJQsqaUBKTNV-1">
          <mxGeometry x="340" y="950" width="120" height="60" as="geometry" />
        </mxCell>
        <mxCell id="v76f6t59qDI6cZXkn5ms-25" style="edgeStyle=orthogonalEdgeStyle;rounded=0;orthogonalLoop=1;jettySize=auto;html=1;exitX=0.5;exitY=0;exitDx=0;exitDy=0;entryX=0.417;entryY=1.067;entryDx=0;entryDy=0;entryPerimeter=0;" edge="1" parent="WIyWlLk6GJQsqaUBKTNV-1" source="v76f6t59qDI6cZXkn5ms-24" target="v76f6t59qDI6cZXkn5ms-8">
          <mxGeometry relative="1" as="geometry" />
        </mxCell>
        <mxCell id="v76f6t59qDI6cZXkn5ms-26" value="Get next best vector given potential vectors list" style="edgeLabel;html=1;align=center;verticalAlign=middle;resizable=0;points=[];" vertex="1" connectable="0" parent="v76f6t59qDI6cZXkn5ms-25">
          <mxGeometry x="0.016" y="-3" relative="1" as="geometry">
            <mxPoint as="offset" />
          </mxGeometry>
        </mxCell>
      </root>
    </mxGraphModel>
  </diagram>
</mxfile>
